<svg width="110" height="110" viewBox="0 0 110 110" fill="none" xmlns="http://www.w3.org/2000/svg">
<g clip-path="url(#clip0_4_29)">
<g clip-path="url(#clip1_4_29)">
<path d="M100.644 71.6449H91.4633C91.3098 70.8295 91.1222 70.0312 90.9175 69.2363L107.29 61.0517C108.975 60.209 109.654 58.1586 108.815 56.4732C107.969 54.7879 105.929 54.1124 104.237 54.9482L88.618 62.7541C82.6612 49.899 69.6662 40.9399 54.5866 40.9399C36.2251 40.9399 20.9306 54.2045 17.71 71.6449H8.52917C3.8279 71.6449 1.14441e-05 75.4694 1.14441e-05 80.1741C1.14441e-05 81.8458 0.614111 83.4595 1.7229 84.7082L13.6467 98.1228V100.644C13.6467 105.349 17.4746 109.173 22.1758 109.173H86.9974C91.7021 109.173 95.5266 105.349 95.5266 100.644V98.1228L107.447 84.7082C108.559 83.4595 109.173 81.8458 109.173 80.1741C109.173 75.4694 105.349 71.6449 100.644 71.6449ZM88.0175 71.6449H86.1002L87.7992 70.792C87.864 71.0786 87.9561 71.3549 88.0175 71.6449ZM54.5866 44.3516C68.3322 44.3516 80.1741 52.5396 85.5714 64.2791L82.5316 65.7973C77.7007 55.17 67.0222 47.7633 54.5866 47.7633C39.9779 47.7633 27.7744 57.9744 24.6663 71.6449H21.1592C24.3286 56.0911 38.1117 44.3516 54.5866 44.3516ZM70.1984 71.6449C67.5612 65.6302 61.5635 61.4099 54.5866 61.4099C47.6098 61.4099 41.6155 65.6302 38.9749 71.6449H35.3107C38.1288 63.7094 45.6924 57.9983 54.5866 57.9983C62.9964 57.9983 70.2394 63.1021 73.3781 70.3724L70.8398 71.6449H70.1984ZM54.5866 68.2333C51.5741 68.2333 48.8892 69.5672 47.0127 71.6449H42.8369C45.2046 67.5885 49.5578 64.8216 54.5866 64.8216C59.612 64.8216 63.9687 67.5885 66.333 71.6449H62.1537C60.2841 69.5672 57.5991 68.2333 54.5866 68.2333ZM54.5866 54.5866C43.7887 54.5866 34.6557 61.792 31.7114 71.6449H28.1906C31.2338 59.8951 41.8952 51.1749 54.5866 51.1749C65.6609 51.1749 75.2033 57.8209 79.4747 67.3258L76.4281 68.8474C72.7162 60.4649 64.3269 54.5866 54.5866 54.5866ZM88.7033 95.5266V100.644C88.7033 101.586 87.9357 102.35 86.9974 102.35H22.1758C21.2342 102.35 20.47 101.586 20.47 100.644V95.5266L6.82334 80.1741C6.82334 79.2325 7.58755 78.4682 8.52917 78.4682H17.0583H20.47H23.8817H27.2933H30.705H34.1167H37.5283H40.94H44.3516H64.8216H68.2333H71.645H75.0566H78.4683H81.88H85.2916H88.7033H92.1149H100.644C101.582 78.4682 102.35 79.2325 102.35 80.1741L88.7033 95.5266Z" fill="#6C5CE7"/>
<path d="M27.2149 39.9575C27.2251 39.9779 27.2319 39.9984 27.2422 40.0189H27.249C27.5322 40.5647 28.0985 40.94 28.7604 40.94C29.7054 40.94 30.473 40.169 30.473 39.2239C30.473 39.0772 30.4491 38.934 30.4116 38.7975C30.4184 38.7736 30.4184 38.7531 30.4116 38.7293C29.1322 35.7202 30.3468 32.4177 31.8411 28.8627C33.4548 25.0212 35.1845 20.7566 33.2808 16.4204C33.0386 15.7961 32.4347 15.3525 31.7251 15.3525C30.8005 15.3525 30.0534 16.1031 30.0534 17.0243C30.0534 17.229 30.0943 17.42 30.1625 17.6008C30.1625 17.6076 30.1625 17.6145 30.166 17.6213C30.1694 17.6315 30.1728 17.6418 30.1762 17.652C30.183 17.6656 30.1864 17.6793 30.1933 17.6929C31.5716 20.7941 30.2376 23.9738 28.7331 27.5629C27.1432 31.3464 25.3828 35.5394 27.1535 39.8142C27.1739 39.8653 27.191 39.9097 27.2149 39.9575Z" fill="#6C5CE7"/>
<path d="M68.7587 39.4593C68.7723 39.4798 68.7791 39.5002 68.786 39.5207H68.7928C69.0794 40.0666 69.6457 40.4453 70.3042 40.4453C71.2492 40.4453 72.0236 39.6742 72.0236 38.7292C72.0236 38.5825 71.9963 38.4392 71.9622 38.3027C71.969 38.2789 71.969 38.2584 71.9554 38.2345C70.6828 35.2254 71.894 31.9229 73.3883 28.368C75.002 24.5264 76.7317 20.2619 74.828 15.9256C74.5824 15.2979 73.9819 14.8578 73.2689 14.8578C72.3477 14.8578 71.5972 15.6084 71.5972 16.5295C71.5972 16.7342 71.6449 16.9253 71.7098 17.1061C71.7098 17.1129 71.7098 17.1197 71.7098 17.1265C71.7166 17.1368 71.7166 17.147 71.7234 17.1572C71.7302 17.1709 71.7371 17.1845 71.7371 17.1982C73.1154 20.2994 71.7848 23.4791 70.2769 27.0681C68.6904 30.8517 66.9334 35.048 68.7041 39.3228C68.7211 39.3672 68.7382 39.4149 68.7587 39.4593Z" fill="#6C5CE7"/>
<path d="M51.2398 24.6049C51.25 24.6254 51.2568 24.6459 51.2671 24.6663H51.2739C51.5605 25.2122 52.1268 25.5909 52.7853 25.5909C53.7303 25.5909 54.4979 24.8199 54.4979 23.8748C54.4979 23.7281 54.474 23.5848 54.4365 23.4484C54.4433 23.4245 54.4433 23.404 54.4365 23.3801C53.1571 20.371 54.3717 17.0686 55.866 13.5136C57.4797 9.67207 59.2094 5.40749 57.3057 1.07126C57.0601 0.443516 56.4596 0 55.7466 0C54.8254 0 54.0749 0.750566 54.0749 1.67172C54.0749 1.87642 54.1158 2.06747 54.1841 2.24829C54.1841 2.25511 54.1841 2.26193 54.1875 2.26876C54.1909 2.27899 54.1943 2.28923 54.1977 2.29946C54.2011 2.31311 54.2079 2.32675 54.2113 2.3404C55.5897 5.4416 54.2557 8.62128 52.7512 12.2103C51.1613 15.9939 49.4009 20.1902 51.175 24.465C51.1988 24.5128 51.2159 24.5572 51.2398 24.6049Z" fill="#6C5CE7"/>
</g>
</g>
<defs>
<clipPath id="clip0_4_29">
<rect width="109.175" height="109.173" fill="white"/>
</clipPath>
<clipPath id="clip1_4_29">
<rect width="109.175" height="109.173" fill="white"/>
</clipPath>
</defs>
</svg>
