<svg width="512" height="512" viewBox="0 0 512 512" fill="none" xmlns="http://www.w3.org/2000/svg">
<rect width="512" height="512" rx="10" fill="black"/>
<path d="M239.653 363.869L129 252.98C139.059 279.022 159.681 331.61 161.693 333.626C163.705 335.642 214.505 354.628 239.653 363.869Z" fill="url(#paint0_linear_8_4)"/>
<path d="M269.832 363.869L380.485 252.98C370.426 279.022 349.804 331.61 347.792 333.626C345.78 335.642 294.98 354.628 269.832 363.869Z" fill="url(#paint1_linear_8_4)"/>
<path d="M204.446 421.833C199.416 416.793 184.83 398.143 166.723 363.869C239.884 418.387 314.358 392.417 348.553 368.909C347.15 441.491 283.751 489.879 252.228 505L237.139 484.838C245.521 483.998 264.299 478.79 272.347 464.677C258.263 478.79 221.211 467.197 204.446 459.636V434.434C225.217 436.035 271.265 435.958 296.443 423.732C278.256 431.094 228.602 425.738 204.446 421.833Z" fill="url(#paint2_linear_8_4)"/>
<path d="M259.772 326.066C245.689 332.114 170.076 269.781 134.03 237.859L149.119 192.495L161.693 200.056L154.149 182.414C179.297 136.21 241.665 36.2424 289.951 6C293.974 22.1293 315.099 56.404 325.158 71.5253L307.554 142.091C312.584 132.01 325.158 107.816 335.218 91.6869C340.248 101.768 367.911 147.131 383 169.813C379.647 180.734 370.929 209.632 362.881 237.859C355.337 263.061 279.891 326.066 259.772 326.066Z" fill="url(#paint3_linear_8_4)"/>
<defs>
<linearGradient id="paint0_linear_8_4" x1="256" y1="6" x2="256" y2="505" gradientUnits="userSpaceOnUse">
<stop offset="0.395833" stop-color="#00E963"/>
<stop offset="1" stop-color="#21B6E5"/>
</linearGradient>
<linearGradient id="paint1_linear_8_4" x1="256" y1="6" x2="256" y2="505" gradientUnits="userSpaceOnUse">
<stop offset="0.395833" stop-color="#00E963"/>
<stop offset="1" stop-color="#21B6E5"/>
</linearGradient>
<linearGradient id="paint2_linear_8_4" x1="256" y1="6" x2="256" y2="505" gradientUnits="userSpaceOnUse">
<stop offset="0.395833" stop-color="#00E963"/>
<stop offset="1" stop-color="#21B6E5"/>
</linearGradient>
<linearGradient id="paint3_linear_8_4" x1="256" y1="6" x2="256" y2="505" gradientUnits="userSpaceOnUse">
<stop offset="0.395833" stop-color="#00E963"/>
<stop offset="1" stop-color="#21B6E5"/>
</linearGradient>
</defs>
</svg>
