<svg width="769" height="186" viewBox="0 0 769 186" fill="none" xmlns="http://www.w3.org/2000/svg">
<g clip-path="url(#clip0_4_2)">
<g clip-path="url(#clip1_4_2)">
<g clip-path="url(#clip2_4_2)">
<g clip-path="url(#clip3_4_2)">
<g clip-path="url(#clip4_4_2)">
<g clip-path="url(#clip5_4_2)">
<g clip-path="url(#clip6_4_2)">
<g clip-path="url(#clip7_4_2)">
<path d="M50.8141 165.942L50.7366 177.741C48.4213 178.195 46.1267 178.624 43.8527 179.027C41.5788 179.441 39.2841 179.798 36.9688 180.097C34.5398 180.397 32.116 180.676 29.6973 180.934C27.2683 181.183 24.8445 181.307 22.4258 181.307C21.723 181.307 20.6894 181.281 19.325 181.229C17.9606 181.177 16.5446 181.079 15.0768 180.934C13.6194 180.779 12.2344 180.588 10.9217 180.361C9.60899 180.133 8.64773 179.844 8.03789 179.493C7.49007 179.141 6.96293 178.723 6.45646 178.237C5.94998 177.761 5.49519 177.27 5.09208 176.764C4.02746 175.451 3.14371 174.014 2.44085 172.454C1.73799 170.883 1.18501 169.265 0.781898 167.601C0.378787 165.937 0.084206 164.247 -0.101845 162.531C-0.27756 160.815 -0.365417 159.125 -0.365417 157.461C-0.365417 155.445 -0.25172 153.352 -0.0243237 151.182C0.203072 149.011 0.570006 146.866 1.07648 144.748C1.58295 142.629 2.2548 140.582 3.09203 138.608C3.91893 136.644 4.93704 134.83 6.14637 133.166C6.4978 132.711 6.95259 132.153 7.51075 131.491C8.0689 130.84 8.62705 130.36 9.18521 130.05C10.5392 129.295 12.0638 128.664 13.759 128.158C15.4541 127.652 17.2061 127.264 19.0149 126.995C20.8341 126.716 22.6377 126.515 24.4259 126.391C26.2244 126.256 27.8782 126.189 29.3873 126.189C32.271 126.189 35.1497 126.354 38.0231 126.685C40.8966 127.016 43.6977 127.584 46.4264 128.391C46.3231 129.755 46.2456 131.13 46.1939 132.515C46.1422 133.9 46.1163 135.274 46.1163 136.639C46.1163 139.926 46.1939 143.233 46.3489 146.562C44.075 145.704 41.7028 145.083 39.2325 144.701C36.7621 144.329 34.3124 144.143 31.8834 144.143C31.3873 144.143 30.6586 144.179 29.6973 144.251C28.7361 144.324 27.6508 144.422 26.4414 144.546C25.2321 144.68 23.9814 144.846 22.6894 145.042C21.4077 145.249 20.2087 145.502 19.0924 145.802C17.9865 146.102 17.0149 146.453 16.1776 146.856C15.3507 147.259 14.8081 147.688 14.5497 148.143C14.3533 148.546 14.1931 149.115 14.069 149.848C13.9347 150.582 13.8313 151.352 13.759 152.159C13.6866 152.965 13.6349 153.745 13.6039 154.5C13.5832 155.265 13.5729 155.874 13.5729 156.329C13.5729 156.784 13.6246 157.688 13.728 159.042C13.821 160.407 13.945 161.859 14.1001 163.399C14.2551 164.939 14.4463 166.34 14.6737 167.601C14.9011 168.862 15.1388 169.596 15.3869 169.802C15.635 169.947 16.0536 170.035 16.6428 170.066C17.2216 170.087 17.6092 170.097 17.8056 170.097C20.2863 170.097 22.9375 169.973 25.7593 169.725C28.581 169.467 31.4442 169.125 34.3486 168.702C37.2531 168.268 40.1162 167.813 42.938 167.337C45.7701 166.862 48.3955 166.397 50.8141 165.942ZM107.064 183.648L95.5594 185.4C94.7532 182.826 93.9418 180.263 93.1253 177.71C92.319 175.157 91.5387 172.593 90.7841 170.019L72.1635 170.702L69.8069 180.779H58.1632C58.866 172.2 59.5947 163.668 60.3493 155.182C61.1038 146.706 61.8377 138.205 62.5509 129.677C66.1789 129.068 69.7965 128.561 73.4038 128.158C77.0215 127.755 80.6702 127.553 84.3499 127.553C88.8461 127.553 93.3372 127.631 97.8231 127.786C98.6293 133.037 99.4252 138.272 100.211 143.492C100.996 148.711 101.818 153.947 102.676 159.198C103.275 163.342 103.942 167.43 104.676 171.461C105.41 175.503 106.206 179.565 107.064 183.648ZM73.6054 160.112L88.1329 159.725C88.0812 159.27 87.9572 158.427 87.7608 157.197C87.5541 155.957 87.3267 154.644 87.0786 153.259C86.8202 151.874 86.5308 150.613 86.2104 149.476C85.8796 148.339 85.5644 147.668 85.2646 147.461C85.1612 147.409 84.9183 147.363 84.5359 147.321C84.1638 147.27 83.7607 147.218 83.3266 147.166C82.9028 147.115 82.4893 147.089 82.0862 147.089C81.6728 147.089 81.3937 147.089 81.249 147.089C80.9906 147.089 80.6495 147.089 80.2257 147.089C79.7916 147.089 79.3368 147.099 78.8613 147.12C78.3859 147.151 77.9311 147.218 77.497 147.321C77.0732 147.414 76.7838 147.538 76.6287 147.693C76.5254 147.745 76.4013 148.071 76.2566 148.67C76.1016 149.28 75.9104 150.029 75.683 150.918C75.4556 151.797 75.2282 152.743 75.0008 153.756C74.7734 154.758 74.5563 155.714 74.3496 156.624C74.1532 157.533 73.993 158.319 73.869 158.98C73.7449 159.632 73.6571 160.009 73.6054 160.112ZM169.437 145.802C169.437 149.936 168.176 153.192 165.654 155.57C163.132 157.937 159.799 159.223 155.654 159.43C160.657 167.761 165.024 176.288 168.755 185.012L146.646 185.539C146.243 181.456 145.638 177.699 144.832 174.268C144.026 170.836 142.889 167.229 141.421 163.446C139.757 163.539 138.108 163.663 136.475 163.818C134.832 163.973 133.204 164.097 131.591 164.19L131.963 181.384C129.09 181.539 126.211 181.617 123.328 181.617C121.87 181.617 120.449 181.591 119.064 181.539C117.669 181.487 116.268 181.384 114.862 181.229C115.214 176.588 115.539 171.958 115.839 167.337C116.139 162.717 116.314 158.112 116.366 153.523C116.521 145.347 116.749 137.171 117.048 128.995C121.793 128.747 126.527 128.468 131.25 128.158C135.964 127.858 140.692 127.708 145.437 127.708C146.646 127.708 147.959 127.734 149.375 127.786C150.791 127.838 152.217 127.977 153.654 128.205C155.091 128.432 156.481 128.747 157.825 129.15C159.158 129.553 160.352 130.081 161.406 130.732C163.98 132.354 165.964 134.515 167.36 137.212C168.745 139.91 169.437 142.773 169.437 145.802ZM151.871 144.593C151.871 144.189 151.861 143.631 151.84 142.918C151.809 142.215 151.747 141.497 151.654 140.763C151.55 140.029 151.395 139.347 151.189 138.716C150.992 138.086 150.718 137.621 150.367 137.321C150.109 137.125 149.68 136.975 149.08 136.871C148.47 136.768 147.824 136.68 147.142 136.608C146.46 136.525 145.804 136.473 145.173 136.453C144.543 136.422 144.103 136.406 143.855 136.406C141.829 136.406 139.845 136.51 137.902 136.716C135.958 136.923 134.031 137.176 132.118 137.476L134.165 152.159C135.271 152.417 136.429 152.593 137.638 152.686C138.847 152.789 140.036 152.841 141.204 152.841C141.71 152.841 142.455 152.815 143.437 152.763C144.419 152.712 145.426 152.613 146.46 152.469C147.494 152.314 148.455 152.097 149.344 151.817C150.222 151.538 150.837 151.171 151.189 150.717C151.344 150.52 151.473 150.133 151.576 149.554C151.669 148.965 151.731 148.355 151.762 147.724C151.783 147.094 151.809 146.479 151.84 145.879C151.861 145.27 151.871 144.841 151.871 144.593ZM231.051 156.701C231.051 158.169 231.051 159.709 231.051 161.322C231.051 162.934 230.875 164.474 230.524 165.942C230.276 167.048 229.997 168.019 229.687 168.857C229.387 169.684 229.01 170.438 228.555 171.12C228.1 171.802 227.547 172.433 226.896 173.012C226.234 173.591 225.428 174.159 224.477 174.717C224.167 174.924 223.356 175.188 222.043 175.508C220.731 175.839 219.103 176.232 217.159 176.686C215.216 177.141 213.046 177.622 210.648 178.128C208.26 178.635 205.815 179.126 203.314 179.601C200.813 180.087 198.337 180.568 195.887 181.043C193.438 181.518 191.221 181.947 189.236 182.33C187.241 182.712 185.546 183.038 184.151 183.307C182.766 183.586 181.846 183.751 181.391 183.803C180.533 174.573 179.727 165.415 178.972 156.329C178.218 147.244 177.639 138.055 177.236 128.763C181.474 128.918 185.686 129.083 189.872 129.259C194.058 129.435 198.296 129.672 202.585 129.972C203.702 130.075 205.33 130.205 207.469 130.36C209.619 130.504 211.857 130.716 214.183 130.995C216.498 131.274 218.679 131.615 220.725 132.019C222.772 132.422 224.25 132.928 225.16 133.538C226.317 134.396 227.351 135.559 228.26 137.026C229.17 138.484 229.826 139.921 230.229 141.337C230.426 141.988 230.576 143.011 230.679 144.406C230.782 145.792 230.86 147.264 230.912 148.825C230.953 150.396 230.989 151.911 231.02 153.368C231.041 154.836 231.051 155.947 231.051 156.701ZM212.213 157.694C212.213 157.135 212.198 156.541 212.167 155.911C212.146 155.28 212.11 154.686 212.058 154.128C211.955 153.321 211.816 152.474 211.64 151.585C211.464 150.706 211.226 149.848 210.927 149.011C210.617 148.184 210.234 147.404 209.779 146.67C209.325 145.936 208.772 145.295 208.12 144.748C207.769 144.437 206.911 144.195 205.547 144.019C204.182 143.843 202.694 143.719 201.081 143.647C199.469 143.564 197.955 143.512 196.539 143.492C195.123 143.471 194.213 143.461 193.81 143.461H190.709C191.112 147.388 191.479 151.259 191.81 155.073C192.13 158.887 192.42 162.763 192.678 166.702C193.639 166.65 195.014 166.51 196.802 166.283C198.59 166.056 200.42 165.751 202.291 165.368C204.162 164.996 205.903 164.515 207.516 163.926C209.128 163.347 210.286 162.655 210.989 161.849C211.547 161.249 211.888 160.608 212.012 159.926C212.146 159.244 212.213 158.5 212.213 157.694ZM289.347 183.648L277.843 185.4C277.037 182.826 276.225 180.263 275.409 177.71C274.603 175.157 273.822 172.593 273.068 170.019L254.447 170.702L252.106 180.779H240.447C241.15 172.2 241.878 163.668 242.633 155.182C243.387 146.706 244.121 138.205 244.834 129.677C248.462 129.068 252.08 128.561 255.687 128.158C259.305 127.755 262.954 127.553 266.633 127.553C271.13 127.553 275.621 127.631 280.107 127.786C280.913 133.037 281.709 138.272 282.494 143.492C283.28 148.711 284.102 153.947 284.959 159.198C285.559 163.342 286.226 167.43 286.96 171.461C287.693 175.503 288.489 179.565 289.347 183.648ZM255.889 160.112L270.416 159.725C270.365 159.27 270.241 158.427 270.044 157.197C269.838 155.957 269.61 154.644 269.362 153.259C269.104 151.874 268.814 150.613 268.494 149.476C268.163 148.339 267.848 147.668 267.548 147.461C267.445 147.409 267.202 147.363 266.819 147.321C266.447 147.27 266.044 147.218 265.61 147.166C265.186 147.115 264.773 147.089 264.37 147.089C263.967 147.089 263.688 147.089 263.533 147.089C263.274 147.089 262.933 147.089 262.509 147.089C262.075 147.089 261.62 147.099 261.145 147.12C260.669 147.151 260.215 147.218 259.781 147.321C259.357 147.414 259.067 147.538 258.912 147.693C258.809 147.745 258.685 148.071 258.54 148.67C258.385 149.28 258.194 150.029 257.967 150.918C257.739 151.797 257.512 152.743 257.284 153.756C257.057 154.758 256.845 155.714 256.649 156.624C256.442 157.533 256.277 158.319 256.153 158.98C256.029 159.632 255.941 160.009 255.889 160.112ZM352.481 145.879C352.481 146.985 352.418 148.324 352.294 149.895C352.16 151.456 351.959 153.042 351.69 154.655C351.411 156.267 351.018 157.781 350.511 159.198C350.005 160.614 349.375 161.725 348.62 162.531C348.32 162.882 347.349 163.223 345.705 163.554C344.062 163.885 342.093 164.211 339.798 164.531C337.503 164.862 335.043 165.177 332.418 165.477C329.793 165.787 327.307 166.056 324.96 166.283C322.614 166.51 320.583 166.696 318.867 166.841C317.151 166.996 316.066 167.074 315.611 167.074L315.007 182.826C313.446 182.919 311.906 182.929 310.386 182.857C308.877 182.785 307.337 182.748 305.766 182.748C304.764 182.748 303.756 182.774 302.743 182.826C301.73 182.878 300.722 182.95 299.72 183.043C299.72 178.299 299.72 173.606 299.72 168.965C299.72 164.324 299.616 159.632 299.409 154.887C299.254 150.598 299.115 146.334 298.991 142.096C298.867 137.858 298.753 133.59 298.65 129.29C303.849 128.938 309.084 128.499 314.356 127.972C319.637 127.445 324.898 127.181 330.139 127.181C331.048 127.181 332.49 127.269 334.465 127.445C336.428 127.621 338.496 127.9 340.666 128.282C342.837 128.654 344.842 129.119 346.682 129.677C348.532 130.236 349.757 130.866 350.356 131.569C350.76 132.024 351.101 132.907 351.38 134.22C351.659 135.533 351.876 136.933 352.031 138.422C352.176 139.91 352.289 141.362 352.372 142.779C352.444 144.184 352.481 145.218 352.481 145.879ZM331.286 145.352C331.286 144.897 331.26 144.313 331.209 143.6C331.157 142.897 331.069 142.205 330.945 141.523C330.821 140.84 330.63 140.21 330.371 139.631C330.123 139.052 329.798 138.634 329.395 138.375C329.136 138.231 328.733 138.107 328.185 138.003C327.627 137.9 327.043 137.822 326.433 137.771C325.834 137.719 325.255 137.683 324.697 137.662C324.139 137.641 323.736 137.631 323.488 137.631C321.617 137.631 319.746 137.729 317.875 137.926C316.015 138.132 314.123 138.386 312.2 138.685C312.355 140.194 312.443 141.683 312.464 143.151C312.495 144.618 312.511 146.081 312.511 147.538C312.511 149.916 312.583 152.314 312.728 154.732C313.389 154.732 314.526 154.696 316.139 154.624C317.751 154.541 319.441 154.412 321.208 154.236C322.976 154.06 324.645 153.812 326.216 153.492C327.777 153.161 328.837 152.717 329.395 152.159C330.304 151.301 330.847 150.252 331.023 149.011C331.198 147.781 331.286 146.562 331.286 145.352ZM391.536 128.313C391.288 131.393 391.189 134.458 391.241 137.507C391.293 140.567 391.267 143.611 391.164 146.639L382.76 146.329C382.709 148.096 382.667 149.838 382.636 151.554C382.616 153.27 382.605 155.011 382.605 156.779C382.605 158.898 382.616 160.981 382.636 163.027C382.667 165.074 382.709 167.156 382.76 169.275L390.481 169.415C390.378 170.883 390.326 172.371 390.326 173.88C390.326 175.399 390.326 176.914 390.326 178.423C390.326 179.694 390.363 180.96 390.435 182.221C390.518 183.482 390.683 184.718 390.931 185.927L363.752 186.376C363.752 183.906 363.726 181.472 363.675 179.074C363.623 176.676 363.525 174.242 363.38 171.771L368.295 171.694C368.047 166.95 367.757 162.257 367.427 157.616C367.096 152.965 366.755 148.293 366.403 143.6L359.209 142.701C359.106 140.582 359.018 138.473 358.946 136.375C358.873 134.277 358.786 132.168 358.682 130.05C364.181 129.853 369.644 129.615 375.07 129.336C380.497 129.057 385.985 128.716 391.536 128.313ZM463.91 151.554C463.91 152.215 463.91 152.861 463.91 153.492C463.91 154.122 463.884 154.737 463.832 155.337C463.78 155.843 463.718 156.727 463.646 157.988C463.563 159.249 463.46 160.701 463.336 162.345C463.212 163.988 463.062 165.714 462.886 167.523C462.711 169.342 462.509 171.022 462.282 172.562C462.054 174.102 461.817 175.425 461.568 176.531C461.31 177.648 461.057 178.33 460.809 178.578C459.289 180.097 457.486 181.219 455.398 181.942C453.3 182.676 451.113 183.172 448.839 183.431C446.576 183.679 444.307 183.777 442.033 183.725C439.759 183.674 437.64 183.648 435.676 183.648C435.015 183.648 433.904 183.637 432.343 183.617C430.772 183.586 428.994 183.55 427.009 183.508C425.015 183.457 422.932 183.363 420.761 183.229C418.591 183.105 416.56 182.929 414.668 182.702C412.777 182.475 411.133 182.201 409.738 181.88C408.353 181.549 407.484 181.131 407.133 180.624C406.73 180.066 406.373 179.462 406.063 178.81C405.763 178.149 405.49 177.518 405.241 176.919C404.58 175.255 403.975 173.477 403.428 171.585C402.869 169.684 402.399 167.74 402.017 165.756C401.645 163.761 401.345 161.776 401.117 159.802C400.89 157.838 400.776 155.973 400.776 154.205C400.776 153.244 400.849 151.993 400.993 150.453C401.148 148.913 401.35 147.249 401.598 145.461C401.856 143.673 402.161 141.843 402.513 139.972C402.864 138.101 403.257 136.36 403.691 134.747C404.115 133.135 404.58 131.734 405.086 130.546C405.593 129.357 406.146 128.561 406.745 128.158C407.252 127.807 408.187 127.481 409.552 127.181C410.916 126.871 412.508 126.608 414.327 126.391C416.136 126.163 418.079 125.956 420.157 125.77C422.224 125.595 424.193 125.445 426.064 125.321C427.924 125.197 429.614 125.109 431.134 125.057C432.643 125.005 433.749 124.98 434.451 124.98C435.413 124.98 436.715 125.031 438.359 125.135C440.002 125.238 441.78 125.403 443.692 125.631C445.615 125.858 447.558 126.132 449.522 126.453C451.496 126.783 453.325 127.176 455.01 127.631C456.705 128.086 458.158 128.592 459.367 129.15C460.576 129.698 461.331 130.303 461.63 130.964C461.889 131.522 462.132 132.318 462.359 133.352C462.587 134.386 462.773 135.559 462.917 136.871C463.072 138.184 463.212 139.569 463.336 141.027C463.46 142.494 463.563 143.895 463.646 145.228C463.718 146.572 463.78 147.797 463.832 148.903C463.884 150.019 463.91 150.903 463.91 151.554ZM450.359 154.05C450.359 153.047 450.307 151.978 450.204 150.841C450.1 149.704 449.775 148.706 449.227 147.848C448.824 147.239 447.852 146.758 446.312 146.407C444.772 146.055 443.082 145.802 441.242 145.647C439.392 145.502 437.609 145.414 435.893 145.383C434.178 145.363 432.968 145.352 432.265 145.352C431.707 145.352 430.736 145.399 429.351 145.492C427.966 145.595 426.503 145.76 424.963 145.988C423.423 146.215 421.996 146.494 420.684 146.825C419.371 147.156 418.565 147.549 418.265 148.003C417.955 148.355 417.712 149.022 417.536 150.003C417.361 150.985 417.211 152.045 417.087 153.182C416.963 154.319 416.875 155.404 416.823 156.438C416.771 157.471 416.746 158.216 416.746 158.67C416.746 159.073 416.756 159.678 416.777 160.484C416.808 161.291 416.875 162.123 416.978 162.981C417.071 163.838 417.185 164.65 417.319 165.415C417.443 166.169 417.629 166.722 417.877 167.074C418.032 167.322 418.487 167.549 419.242 167.756C419.996 167.952 420.916 168.143 422.002 168.33C423.087 168.505 424.234 168.64 425.444 168.733C426.663 168.836 427.836 168.929 428.963 169.012C430.1 169.084 431.113 169.131 432.002 169.151C432.88 169.182 433.495 169.198 433.847 169.198C434.457 169.198 435.506 169.146 436.994 169.043C438.483 168.939 440.049 168.774 441.692 168.547C443.325 168.319 444.839 168.045 446.235 167.725C447.62 167.394 448.514 167.001 448.917 166.547C449.217 166.195 449.47 165.451 449.677 164.314C449.873 163.177 450.023 161.942 450.126 160.608C450.23 159.265 450.292 157.978 450.312 156.748C450.343 155.508 450.359 154.608 450.359 154.05ZM484.344 181.074C484.344 181.332 484.344 181.663 484.344 182.066C484.344 182.469 484.318 182.873 484.267 183.276C484.215 183.679 484.137 184.072 484.034 184.454C483.941 184.826 483.817 185.09 483.662 185.245C483.466 185.4 483.063 185.539 482.453 185.663C481.843 185.787 481.187 185.886 480.484 185.958C479.781 186.041 479.114 186.092 478.484 186.113C477.853 186.134 477.383 186.144 477.073 186.144C476.773 186.144 476.406 186.134 475.972 186.113C475.548 186.092 475.109 186.056 474.654 186.004C474.199 185.953 473.781 185.865 473.398 185.741C473.026 185.606 472.763 185.441 472.607 185.245C472.411 185.038 472.246 184.671 472.111 184.144C471.987 183.617 471.889 183.048 471.817 182.438C471.744 181.839 471.693 181.26 471.662 180.702C471.641 180.144 471.631 179.715 471.631 179.415C471.631 178.805 471.677 178.025 471.77 177.074C471.874 176.113 472.153 175.43 472.607 175.027C472.763 174.872 473.129 174.759 473.708 174.686C474.287 174.604 474.918 174.526 475.6 174.454C476.282 174.381 476.949 174.33 477.6 174.299C478.261 174.278 478.716 174.268 478.964 174.268C479.522 174.268 480.318 174.304 481.352 174.376C482.385 174.459 483.104 174.676 483.507 175.027C483.662 175.275 483.802 175.663 483.926 176.19C484.05 176.728 484.138 177.312 484.189 177.942C484.241 178.573 484.282 179.177 484.313 179.756C484.334 180.335 484.344 180.774 484.344 181.074ZM551.865 159.508C551.865 163.942 551.855 168.319 551.834 172.64C551.803 176.95 551.762 181.327 551.71 185.772C548.589 185.617 545.488 185.539 542.408 185.539C540.888 185.539 539.358 185.617 537.818 185.772C536.289 185.927 534.764 186.128 533.245 186.376C531.332 182.19 529.415 178.04 527.493 173.927C525.57 169.813 523.653 165.663 521.741 161.477C520.324 158.396 518.986 155.316 517.725 152.236C516.464 149.156 515.203 146.05 513.942 142.918C513.487 149.74 513.022 156.515 512.546 163.244C512.061 169.983 511.668 176.759 511.368 183.57L495.011 183.121C494.763 173.436 494.536 163.797 494.329 154.205C494.133 144.613 493.781 134.975 493.275 125.29L522.872 125.135C523.885 127.657 524.831 130.194 525.71 132.747C526.598 135.29 527.446 137.874 528.252 140.499C529.41 144.489 530.723 148.438 532.19 152.345C533.648 156.262 535.11 160.19 536.578 164.128C536.526 157.812 536.413 151.528 536.237 145.275C536.061 139.011 535.922 132.701 535.818 126.344L551.106 128.158C551.312 133.409 551.493 138.634 551.648 143.833C551.793 149.032 551.865 154.257 551.865 159.508ZM592.89 128.313C592.641 131.393 592.543 134.458 592.595 137.507C592.647 140.567 592.621 143.611 592.517 146.639L584.114 146.329C584.062 148.096 584.026 149.838 584.006 151.554C583.975 153.27 583.959 155.011 583.959 156.779C583.959 158.898 583.975 160.981 584.006 163.027C584.026 165.074 584.062 167.156 584.114 169.275L591.835 169.415C591.732 170.883 591.68 172.371 591.68 173.88C591.68 175.399 591.68 176.914 591.68 178.423C591.68 179.694 591.722 180.96 591.804 182.221C591.877 183.482 592.037 184.718 592.285 185.927L565.106 186.376C565.106 183.906 565.085 181.472 565.044 179.074C564.992 176.676 564.889 174.242 564.734 171.771L569.649 171.694C569.401 166.95 569.111 162.257 568.78 157.616C568.46 152.965 568.119 148.293 567.757 143.6L560.579 142.701C560.475 140.582 560.382 138.473 560.3 136.375C560.227 134.277 560.139 132.168 560.036 130.05C565.545 129.853 571.008 129.615 576.424 129.336C581.85 129.057 587.339 128.716 592.89 128.313ZM661.93 159.508C661.93 163.942 661.92 168.319 661.899 172.64C661.868 176.95 661.832 181.327 661.79 185.772C658.659 185.617 655.553 185.539 652.472 185.539C650.963 185.539 649.439 185.617 647.899 185.772C646.359 185.927 644.829 186.128 643.309 186.376C641.397 182.19 639.48 178.04 637.557 173.927C635.645 169.813 633.728 165.663 631.805 161.477C630.389 158.396 629.051 155.316 627.79 152.236C626.529 149.156 625.268 146.05 624.007 142.918C623.552 149.74 623.087 156.515 622.611 163.244C622.125 169.983 621.733 176.759 621.433 183.57L605.076 183.121C604.828 173.436 604.6 163.797 604.394 154.205C604.197 144.613 603.846 134.975 603.339 125.29L632.937 125.135C633.95 127.657 634.896 130.194 635.774 132.747C636.663 135.29 637.511 137.874 638.317 140.499C639.475 144.489 640.787 148.438 642.255 152.345C643.712 156.262 645.175 160.19 646.643 164.128C646.591 157.812 646.477 151.528 646.302 145.275C646.126 139.011 645.986 132.701 645.883 126.344L661.186 128.158C661.382 133.409 661.558 138.634 661.713 143.833C661.858 149.032 661.93 154.257 661.93 159.508ZM710.226 157.756C710.226 158.975 710.179 160.443 710.086 162.159C709.983 163.875 709.802 165.637 709.544 167.446C709.296 169.265 708.954 171.007 708.52 172.671C708.097 174.335 707.554 175.725 706.892 176.841C705.786 178.754 704.412 180.252 702.768 181.338C701.135 182.423 699.373 183.234 697.481 183.772C695.579 184.299 693.595 184.64 691.528 184.795C689.46 184.94 687.419 185.012 685.403 185.012C683.688 185.012 682.184 184.96 680.892 184.857C679.61 184.764 678.375 184.588 677.186 184.33C675.998 184.082 674.788 183.705 673.558 183.198C672.318 182.692 670.938 182.061 669.419 181.307C669.222 178.929 669.114 176.567 669.093 174.221C669.062 171.875 668.995 169.492 668.891 167.074C670.463 167.322 671.879 167.575 673.14 167.833C674.401 168.081 675.636 168.309 676.845 168.516C678.054 168.712 679.29 168.877 680.551 169.012C681.812 169.136 683.254 169.198 684.876 169.198C685.879 169.198 687 169.136 688.241 169.012C689.481 168.877 690.504 168.485 691.311 167.833C691.807 167.43 692.21 166.774 692.52 165.864C692.82 164.955 693.032 163.968 693.156 162.903C693.28 161.849 693.357 160.815 693.388 159.802C693.409 158.8 693.419 157.993 693.419 157.384C693.419 153.6 693.218 149.817 692.814 146.034C692.411 142.241 691.91 138.479 691.311 134.747C691.052 133.28 690.825 131.817 690.628 130.36C690.422 128.892 690.091 127.476 689.636 126.111C690.194 126.163 690.763 126.189 691.342 126.189C691.92 126.189 692.541 126.189 693.202 126.189C695.724 126.189 698.22 126.127 700.691 126.003C703.161 125.879 705.657 125.641 708.179 125.29C708.737 129.982 709.13 134.613 709.358 139.182C709.585 143.75 709.828 148.381 710.086 153.073C710.128 153.88 710.164 154.66 710.195 155.414C710.215 156.169 710.226 156.949 710.226 157.756ZM768.894 183.648L757.39 185.4C756.583 182.826 755.777 180.263 754.971 177.71C754.165 175.157 753.379 172.593 752.614 170.019L733.994 170.702L731.653 180.779H719.993C720.696 172.2 721.43 163.668 722.195 155.182C722.95 146.706 723.678 138.205 724.381 129.677C728.019 129.068 731.642 128.561 735.25 128.158C738.857 127.755 742.5 127.553 746.18 127.553C750.676 127.553 755.173 127.631 759.669 127.786C760.475 133.037 761.266 138.272 762.041 143.492C762.827 148.711 763.648 153.947 764.506 159.198C765.116 163.342 765.783 167.43 766.506 171.461C767.24 175.503 768.036 179.565 768.894 183.648ZM735.436 160.112L749.979 159.725C749.927 159.27 749.798 158.427 749.591 157.197C749.395 155.957 749.167 154.644 748.909 153.259C748.661 151.874 748.371 150.613 748.041 149.476C747.71 148.339 747.395 147.668 747.095 147.461C746.992 147.409 746.754 147.363 746.382 147.321C745.999 147.27 745.591 147.218 745.157 147.166C744.733 147.115 744.32 147.089 743.917 147.089C743.513 147.089 743.234 147.089 743.079 147.089C742.831 147.089 742.49 147.089 742.056 147.089C741.632 147.089 741.177 147.099 740.692 147.12C740.216 147.151 739.767 147.218 739.343 147.321C738.909 147.414 738.614 147.538 738.459 147.693C738.366 147.745 738.242 148.071 738.087 148.67C737.932 149.28 737.741 150.029 737.513 150.918C737.286 151.797 737.058 152.743 736.831 153.756C736.604 154.758 736.392 155.714 736.195 156.624C735.989 157.533 735.823 158.319 735.699 158.98C735.575 159.632 735.487 160.009 735.436 160.112Z" fill="#6C5CE7"/>
</g>
</g>
</g>
</g>
<g clip-path="url(#clip8_4_2)">
<g clip-path="url(#clip9_4_2)">
<path d="M431.057 71.6245H421.876C421.723 70.8091 421.535 70.0108 421.33 69.2159L437.703 61.0313C439.388 60.1886 440.067 58.1382 439.228 56.4529C438.382 54.7675 436.341 54.092 434.649 54.9279L419.031 62.7337C413.074 49.8786 400.079 40.9196 384.999 40.9196C366.638 40.9196 351.343 54.1841 348.123 71.6245H338.942C334.241 71.6245 330.413 75.449 330.413 80.1537C330.413 81.8254 331.027 83.4391 332.136 84.6878L344.059 98.1025V100.624C344.059 105.328 347.887 109.153 352.589 109.153H417.41C422.115 109.153 425.939 105.328 425.939 100.624V98.1025L437.86 84.6878C438.972 83.4391 439.586 81.8254 439.586 80.1537C439.586 75.449 435.761 71.6245 431.057 71.6245ZM418.43 71.6245H416.513L418.212 70.7716C418.277 71.0582 418.369 71.3345 418.43 71.6245ZM384.999 44.3312C398.745 44.3312 410.587 52.5192 415.984 64.2587L412.944 65.7769C408.113 55.1496 397.435 47.7429 384.999 47.7429C370.391 47.7429 358.187 57.954 355.079 71.6245H351.572C354.741 56.0708 368.524 44.3312 384.999 44.3312ZM400.611 71.6245C397.974 65.6098 391.976 61.3895 384.999 61.3895C378.022 61.3895 372.028 65.6098 369.388 71.6245H365.723C368.541 63.689 376.105 57.9779 384.999 57.9779C393.409 57.9779 400.652 63.0817 403.791 70.352L401.253 71.6245H400.611ZM384.999 68.2129C381.987 68.2129 379.302 69.5468 377.425 71.6245H373.25C375.617 67.5681 379.971 64.8012 384.999 64.8012C390.025 64.8012 394.381 67.5681 396.746 71.6245H392.566C390.697 69.5468 388.012 68.2129 384.999 68.2129ZM384.999 54.5662C374.201 54.5662 365.068 61.7716 362.124 71.6245H358.603C361.647 59.8748 372.308 51.1545 384.999 51.1545C396.074 51.1545 405.616 57.8005 409.887 67.3054L406.841 68.827C403.129 60.4445 394.74 54.5662 384.999 54.5662ZM419.116 95.5062V100.624C419.116 101.565 418.348 102.33 417.41 102.33H352.589C351.647 102.33 350.883 101.565 350.883 100.624V95.5062L337.236 80.1537C337.236 79.2121 338 78.4479 338.942 78.4479H347.471H350.883H354.294H357.706H361.118H364.529H367.941H371.353H374.764H395.234H398.646H402.058H405.469H408.881H412.293H415.704H419.116H422.528H431.057C431.995 78.4479 432.763 79.2121 432.763 80.1537L419.116 95.5062Z" fill="#6C5CE7"/>
<path d="M357.628 39.937C357.638 39.9575 357.645 39.9779 357.655 39.9984H357.662C357.945 40.5443 358.511 40.9196 359.173 40.9196C360.118 40.9196 360.886 40.1485 360.886 39.2035C360.886 39.0568 360.862 38.9135 360.824 38.777C360.831 38.7532 360.831 38.7327 360.824 38.7088C359.545 35.6997 360.759 32.3972 362.254 28.8423C363.867 25.0007 365.597 20.7362 363.693 16.3999C363.451 15.7756 362.847 15.3321 362.138 15.3321C361.213 15.3321 360.466 16.0827 360.466 17.0038C360.466 17.2085 360.507 17.3996 360.575 17.5804C360.575 17.5872 360.575 17.594 360.579 17.6008C360.582 17.6111 360.585 17.6213 360.589 17.6316C360.596 17.6452 360.599 17.6588 360.606 17.6725C361.984 20.7737 360.65 23.9534 359.146 27.5424C357.556 31.326 355.795 35.5189 357.566 39.7937C357.587 39.8449 357.604 39.8892 357.628 39.937Z" fill="#6C5CE7"/>
<path d="M399.171 39.4389C399.185 39.4594 399.192 39.4799 399.199 39.5003H399.205C399.492 40.0462 400.058 40.4249 400.717 40.4249C401.662 40.4249 402.436 39.6538 402.436 38.7088C402.436 38.5621 402.409 38.4188 402.375 38.2824C402.382 38.2585 402.382 38.238 402.368 38.2141C401.096 35.205 402.307 31.9025 403.801 28.3476C405.415 24.5061 407.144 20.2415 405.241 15.9053C404.995 15.2775 404.395 14.8374 403.682 14.8374C402.76 14.8374 402.01 15.588 402.01 16.5091C402.01 16.7138 402.058 16.9049 402.122 17.0857C402.122 17.0925 402.122 17.0993 402.122 17.1062C402.129 17.1164 402.129 17.1266 402.136 17.1369C402.143 17.1505 402.15 17.1642 402.15 17.1778C403.528 20.279 402.197 23.4587 400.69 27.0477C399.103 30.8313 397.346 35.0276 399.117 39.3024C399.134 39.3468 399.151 39.3946 399.171 39.4389Z" fill="#6C5CE7"/>
<path d="M381.652 24.5845C381.663 24.605 381.67 24.6255 381.68 24.6459H381.687C381.973 25.1918 382.54 25.5705 383.198 25.5705C384.143 25.5705 384.911 24.7995 384.911 23.8544C384.911 23.7077 384.887 23.5644 384.849 23.428C384.856 23.4041 384.856 23.3836 384.849 23.3597C383.57 20.3507 384.784 17.0482 386.279 13.4932C387.892 9.65168 389.622 5.3871 387.718 1.05088C387.473 0.423131 386.872 -0.0203857 386.159 -0.0203857C385.238 -0.0203857 384.488 0.73018 384.488 1.65133C384.488 1.85603 384.529 2.04708 384.597 2.2279C384.597 2.23472 384.597 2.24155 384.6 2.24837C384.604 2.25861 384.607 2.26884 384.61 2.27908C384.614 2.29272 384.621 2.30637 384.624 2.32002C386.002 5.42122 384.668 8.60089 383.164 12.19C381.574 15.9735 379.814 20.1698 381.588 24.4447C381.612 24.4924 381.629 24.5368 381.652 24.5845Z" fill="#6C5CE7"/>
</g>
</g>
</g>
</g>
</g>
</g>
<defs>
<clipPath id="clip0_4_2">
<rect width="769" height="186" fill="white"/>
</clipPath>
<clipPath id="clip1_4_2">
<rect width="1000" height="249" fill="white" transform="translate(-115)"/>
</clipPath>
<clipPath id="clip2_4_2">
<rect width="994.793" height="249.041" fill="white" transform="translate(-112.396 -0.0203857)"/>
</clipPath>
<clipPath id="clip3_4_2">
<rect width="994.793" height="249.041" fill="white" transform="translate(-112.396 -0.0203857)"/>
</clipPath>
<clipPath id="clip4_4_2">
<rect width="769.316" height="61.3969" fill="white" transform="translate(-0.393921 124.98)"/>
</clipPath>
<clipPath id="clip5_4_2">
<rect width="769.316" height="61.3969" fill="white" transform="translate(-0.393921 124.98)"/>
</clipPath>
<clipPath id="clip6_4_2">
<rect width="769.316" height="61.3969" fill="white" transform="translate(-0.393921 124.98)"/>
</clipPath>
<clipPath id="clip7_4_2">
<rect width="769.316" height="61.3969" fill="white" transform="translate(-0.393921 124.98)"/>
</clipPath>
<clipPath id="clip8_4_2">
<rect width="109.175" height="109.173" fill="white" transform="translate(330.413 -0.0203857)"/>
</clipPath>
<clipPath id="clip9_4_2">
<rect width="109.175" height="109.173" fill="white" transform="translate(330.413 -0.0203857)"/>
</clipPath>
</defs>
</svg>
