<svg width="368" height="720" viewBox="0 0 368 720" fill="none" xmlns="http://www.w3.org/2000/svg">
<path d="M241.709 601.825C235.289 604.411 226.014 605.909 215.086 606.587C204.162 607.265 191.671 607.12 178.891 606.467C153.489 605.169 127.014 601.866 109.571 599.064C102.387 591.764 82.4209 566.211 57.485 519.752C161.458 594.523 266.628 558.937 316.416 525.555C314.875 576.758 291.808 619.512 263.4 652.254C234.939 685.056 201.166 707.749 178.489 718.742L158.207 691.7C164.405 690.873 173.441 688.664 182.425 684.451C192.289 679.825 202.184 672.739 208.141 662.314L206.566 661.111C201.683 665.994 194.753 668.708 186.615 669.816C178.481 670.923 169.222 670.413 159.793 668.921C141.237 665.987 122.19 659.283 110.091 653.897V619.26C125.215 620.362 148.871 620.842 173.291 618.939C198.259 616.994 224.146 612.549 242.521 603.654C244.554 602.831 246.348 601.889 247.854 600.814L246.769 599.136C245.162 600.074 243.473 600.97 241.709 601.825ZM8.43064 334.234L29.6454 270.59L46.7582 280.858L49.4101 282.449L48.1919 279.606L37.4742 254.598C55.6761 221.273 87.174 168.818 122.812 119.22C158.235 69.9209 197.653 23.5829 232.109 1.57389C235.381 13.3791 244.239 30.9863 254.039 48.3105C264.121 66.1344 275.269 83.7766 282.559 94.7318L257.212 196.121L259.076 196.811C266.191 182.581 283.743 148.87 298.1 125.663C307.13 142.832 345.012 204.734 366.177 236.523C361.229 252.619 348.75 293.916 337.222 334.264C334.563 343.12 325.843 355.473 313.63 369.105C301.452 382.699 285.919 397.44 269.809 411.054C253.698 424.669 237.032 437.139 222.594 446.198C215.373 450.729 208.727 454.395 202.998 456.926C197.242 459.469 192.512 460.818 189.091 460.818H188.886L188.697 460.899C187.635 461.354 186.202 461.519 184.364 461.338C182.533 461.157 180.368 460.64 177.892 459.798C172.938 458.113 166.855 455.17 159.915 451.222C146.041 443.328 128.875 431.493 110.689 417.926C74.5544 390.968 34.4931 357.245 8.43064 334.234ZM28.9282 427.173C20.0225 404.965 9.87372 379.054 2.64593 360.424L156.082 513.86C138.051 507.232 112.961 497.91 91.4474 489.702C79.8129 485.263 69.2295 481.153 61.3755 477.971C57.4472 476.38 54.21 475.024 51.8682 473.978C50.696 473.454 49.7591 473.013 49.0762 472.661C48.7342 472.485 48.4666 472.337 48.2698 472.217C48.1716 472.157 48.0978 472.108 48.0449 472.07C48.0047 472.041 47.9852 472.025 47.9798 472.02C47.975 472.014 47.9574 471.994 47.9266 471.951C47.8867 471.896 47.8357 471.82 47.7731 471.718C47.6476 471.515 47.4923 471.24 47.307 470.888C46.9369 470.185 46.4687 469.221 45.9105 468.014C44.7952 465.602 43.34 462.264 41.6255 458.213C38.1974 450.112 33.7456 439.187 28.9282 427.173ZM207.554 513.86L360.99 360.424C353.763 379.054 343.614 404.965 334.708 427.173C329.891 439.187 325.439 450.112 322.011 458.213C320.296 462.264 318.841 465.602 317.726 468.014C317.168 469.221 316.699 470.185 316.329 470.888C316.144 471.24 315.989 471.515 315.863 471.718C315.845 471.748 315.828 471.776 315.811 471.801C315.772 471.863 315.738 471.912 315.71 471.951C315.691 471.976 315.678 471.994 315.669 472.005C315.662 472.013 315.658 472.018 315.656 472.02C315.651 472.025 315.631 472.041 315.592 472.07C315.539 472.108 315.465 472.157 315.367 472.217C315.17 472.337 314.902 472.485 314.56 472.661C313.877 473.013 312.94 473.454 311.768 473.978C309.426 475.024 306.189 476.38 302.261 477.971C294.407 481.153 283.823 485.263 272.189 489.702C250.675 497.91 225.585 507.232 207.554 513.86Z" fill="url(#paint0_linear_204_2)" stroke="#8F21E5" stroke-width="2"/>
<defs>
<linearGradient id="paint0_linear_204_2" x1="183.636" y1="0" x2="183.636" y2="720" gradientUnits="userSpaceOnUse">
<stop offset="0.395833" stop-color="#00E963"/>
<stop offset="1" stop-color="#21B6E5"/>
</linearGradient>
</defs>
</svg>
